<svg version="1.2" xmlns="http://www.w3.org/2000/svg" viewBox="0 0 2500 372" width="2500" height="372">
	<style>
		.s0 { fill: #000000 } 
	</style>
	<g>
		<path fill-rule="evenodd" class="s0" d="m1558.45 100.65l-26.39 26.08c-6.43 5.66-10.73 10.31-15.79 28.67-2.28 11.18-5.36 22.63 5.76 25.58 17.26 4.59 69.32 11.49 81.77 33.49 9.1 16.12 2.92 39.06-2.97 58.77-16.41 54.94-44.81 69.93-102.36 69.93h-44.48c-43.16 0-62.8-31.53-52.98-63.69l6.55-24.3 80.67 0.05-6.43 24.9c-3.26 11.5 5.23 16.42 12.42 16.42 11.14 0 18-6.57 21.26-17.72 3.92-15.11 7.84-29.57-15.69-34.82-31.38-6.56-54.1-9.98-63.44-22.33-15.38-20.35-8.82-38.42 2.3-79.13 13.07-46.62 50.68-50.23 80.75-50.23h62.17c17.65 0 61.47 11.81 45.76 69.61l-1.99 6.64-79.32-0.04 18.5-66.6c0.61-2.87-3.56-3.03-6.07-1.28zm-1233.66 83.7c24.65 8.52 58.03 28.9 42.24 82.58-16.99 57.78-53.64 76.27-113.8 76.27h-216.52l202.11-190.53-36.63 133.96h19.62c14.39 0 23.55-9.18 27.48-21.01l65.4-233.78c47.1 0 99.29 5.41 88.96 73.55-8.66 57.2-46.66 70.55-78.42 76.56-2.02 0.26-2.02 2.22-0.44 2.4zm-13.48-152.68l-219.12 204.88 57.23-204.88zm294.41 311.51l69.33-250.85h81.1l-69.32 250.85zm1078.71-175.95l31.38-25h-73.24l13.72-49.91h166.8l-14.4 49.91h-43.82l-55.58 200.95h-81.11l40.8-147.77c3-11.8 6.64-21.24 15.45-28.18zm485.86-66.81l-25.17 25.95c-5.82 5.36-10.05 10.19-15.79 28.95l-51.52 187.86h-81.11l69.35-250.85h138.67c28.77 0 48.4 19.69 37.93 60.41l-52.32 190.44h-81.12l66.69-241.25c0.97-3.53-3.57-2.71-5.61-1.51zm-859.33 109.1l16.47-9.69c3.84-2.76 15.28-8.67 30.33-8.99h37.27l-13.74 48.59h-83.06l-10.48 36.79c-2.6 9.85 4.58 17.07 12.42 17.07h66.71l-13.72 49.91h-94.18c-43.17 0-60.83-37.44-52.98-63.69l37.28-137.27c11.77-45.96 51.02-49.91 81.1-49.91h98.11l-13.74 49.91h-67.37c-12.43 0-18.98 8.53-20.26 13.79l-14.28 49.85c-1.09 2.69-0.79 6.23 4.12 3.64zm-174.29-108.71l-26.43 25.96c-9.21 7.17-13.36 21.08-15.76 28.59l-32.6 120.21c-3.92 10.5 3.93 17.73 11.13 17.73h16.99l23.85-85.96 81.14 0.01-37.6 135.85h-124.94c-43.17 0-62.78-31.53-52.98-63.69l37.28-137.27c11.76-45.97 51.01-49.91 81.1-49.91h61.49c17.66 0 64.76 8.54 49.06 66.32l-3.79 13.83-81.32 0.12 19.67-70.67c0.93-3.53-4.87-2.71-6.29-1.12zm-586.87 0l-26.57 25.83c-6.08 4.45-12.06 14.03-16.1 28.77l-51.79 187.79h-81.76l69.98-250.86h122.97c19.82 0 73.45 4.65 56.91 65.66-14.06 51.88-36.31 55.82-58.54 56.48-3.93 0-3.93 5.91 0 5.91 3.92 0 35.63 16.08 27.14 44.66-9.37 31.45-21.6 78.13-21.6 78.13h-81.76l66.85-241.2c0.79-3.15-4.4-2.76-5.73-1.17zm1798.78 108.71l16.45-9.69c3.85-2.76 15.31-8.67 30.34-8.99h37.29l-13.75 48.59h-83.08l-10.45 36.79c-2.63 9.85 4.58 17.07 12.42 17.07h66.71l-13.74 49.91h-94.19c-43.16 0-60.81-37.44-52.98-63.69l37.3-137.27c11.76-45.96 51.01-49.91 81.11-49.91h98.11l-13.74 49.91h-67.37c-12.43 0-18.98 8.53-20.29 13.79l-14.27 49.85c-1.09 2.69-0.81 6.23 4.13 3.64zm-1373.42-47.58l-34.66 124.78c-9.82 36.76-38.61 56.46-96.16 56.46h-115.11l69.98-250.85h118.4c17.66 0 73.26 11.81 57.55 69.61zm-70.31-61.22l-26.26 25.82c-6.33 5.12-11.54 14.56-15.97 28.72l-37.79 137.95c9.81 0 30.74 3.94 39.24-23.64l47.05-167.71c1.59-3.2-4.2-3.03-6.27-1.14zm1107.16 61.23l-34.66 124.78c-9.82 36.76-38.59 56.47-96.17 56.47h-42.5c-43.16 0-62.8-31.53-52.98-63.69l37.27-137.27c11.79-45.97 51.04-49.91 81.11-49.91h50.38c17.65 0 73.26 11.81 57.55 69.62zm-70.36-61.59l-25.17 25.96c-5.47 5.01-10.22 10.88-15.69 28.96l-33.92 125.47c-3.93 10.52 4.57 15.75 11.76 15.75 7.19 0 16.35-5.89 19.64-17.06l49.05-177.64c0.64-2.63-3.92-2.97-5.67-1.44z"/>
	</g>
</svg>