<svg version="1.2" xmlns="http://www.w3.org/2000/svg" viewBox="0 0 2500 428" width="2500" height="428">
	<style>
		.s0 { fill: #e4b036 } 
		.s1 { fill: none;stroke: #e4b036;stroke-linecap: square;stroke-miterlimit:2.613;stroke-width: 3.1 } 
	</style>
	<path fill-rule="evenodd" class="s0" d="m2293.83 70.47c-5.06 5.88-10.93 4.2-14.3 1.69-3.33-3.37-7.54-8.4-2.5-14.28 4.21-6.71 10.91-4.2 14.28-1.68 3.35 2.52 6.72 8.4 2.52 14.27zm-15.13-11.75c-2.51 4.19-1.67 8.4 2.53 10.91 3.34 2.51 7.54 2.51 10.91-0.84 2.54-3.36 0.84-7.55-2.5-10.07-4.2-3.35-8.41-3.35-10.94 0zm82.31-39.45h2.53v20.14h-3.37l-10.07-15.93v15.93h-2.54v-20.14h3.37l10.08 16.78zm-51.24 10.91l15.13-5.87 1.67 1.69-6.7 3.35 6.7 15.95-2.5 0.84-6.74-15.96-6.7 2.53zm-8.39 5.88l1.7-1.67 12.6 16.78-2.54 1.68-18.47-6.71 10.08 12.59-1.67 1.67-12.61-15.95 2.52-1.67 17.65 6.71zm110.03 0.84l1.7 1.69-10.1 16.78-2.51-1.68v-19.3l-9.23 14.26-1.69-1.67 10.09-16.8 3.34 1.68-0.84 18.48 0.84 0.84zm-26.86 7.55l-14.28-4.19 5.89-19.31 13.43 4.2v2.51l-11.78-3.35-1.65 5.86 10.92 3.37-0.86 1.69-10.91-2.53-1.69 5.88 11.76 3.36zm38.64 24.35l-5.87 1.67-1.7-2.51 21-5.04 1.7 2.51-12.61 17.63-1.69-2.51 4.19-5.04zm5.87 4.18l5.9-6.71-9.24 1.67zm-89.04-31.89l-2.5 0.84-4.2-20.14h2.53zm78.96 1.69l11.76 10.9-1.69 1.69-5.03-4.2-12.6 12.59-1.67-2.53 12.6-12.59-5.04-4.19zm11.76 46.16l3.37 10.07-2.53 0.84-3.36-12.59 19.32-5.87 0.84 2.51zm-159.58-10.93c-3.37-0.83-5.04 1.68-5.87 3.37-1.7 3.37 0 7.55 5.04 9.23 4.2 2.52 8.39 1.69 10.06-2.51 0.87-1.67 0.87-5.04-2.5-7.55l0.83-2.53c6.73 4.2 4.2 10.09 4.2 10.92-1.67 4.2-6.7 7.56-13.43 4.2-5.91-1.68-8.41-6.71-6.74-12.59 2.53-4.2 5.9-5.88 9.26-5.04zm146.17 87.31c4.21-5.88 10.91-4.2 14.27-0.85 3.36 2.53 6.73 7.57 2.53 13.44-5.06 6.72-10.93 4.19-14.3 1.68-3.34-2.52-7.54-8.39-2.5-14.27zm15.09 11.76c2.54-3.37 0.84-7.55-2.5-10.92-4.2-2.51-8.41-2.51-10.93 0.84-2.52 3.36-1.67 7.55 2.52 10.91 3.35 2.51 7.54 2.51 10.91-0.83zm-82.29 39.45h-2.54v-20.16h2.54l10.06 15.95h0.84v-15.95h2.53v20.16h-3.37l-10.06-15.97zm50.39-10.93l-15.13 5.87-0.83-1.67 6.72-2.52-6.72-16.78 2.52-0.85 6.71 16.78 5.9-3.34zm9.23-5.87l-2.52 1.67-11.74-15.95 2.5-1.67 17.63 6.71-9.23-13.43 1.67-1.68 12.63 16.78-3.37 1.69-17.63-6.71zm-110.03-0.84l-2.52-0.85 10.93-17.63 2.53 1.69v19.3l8.39-13.42 2.51 0.83-10.9 17.62-2.53-1.68v-19.3zm26.04-7.55l14.26 4.2-5.03 19.3-14.27-4.2 0.84-1.67 10.92 3.36 1.67-5.9-10.07-3.34 0.83-2.53 10.08 3.36 1.7-6.71-10.93-3.36zm-38.63-24.33l5.87-0.85 1.69 2.52-20.99 4.19-1.68-2.51 13.44-16.79 0.83 2.52-3.37 4.19zm-5.88-4.21l-5.9 7.55 9.24-2.51zm89.87 31.91h2.5l4.2 19.3-2.5 0.84zm-79.8-0.84l-10.93-11.75 1.7-1.69 4.2 5.04 12.6-12.59 2.5 1.69-12.6 12.59 4.21 5.02zm-11.78-47.01l-2.5-9.23 1.67-0.83 4.2 12.59-19.33 5.87-0.83-3.36zm159.59 10.92c4.21 0.85 5.88-1.68 6.71-3.35q0.31-1.42 0.11-2.85-0.2-1.44-0.9-2.72-0.69-1.27-1.79-2.22-1.1-0.94-2.46-1.45c-5.04-1.68-8.41-1.68-10.91 3.36 0 1.67-0.85 4.19 3.34 7.55l-0.82 1.68c-6.7-3.36-5.03-9.23-4.2-10.92 1.7-4.19 5.89-7.55 13.43-4.19 5.9 2.52 8.4 7.55 5.9 12.59-1.7 5.04-5.9 5.87-9.24 5.04z"/>
	<path class="s1" d="m2282.07 118.31c0.36-19.14 8.22-37.38 21.88-50.79 13.67-13.41 32.05-20.92 51.19-20.92 19.15 0 37.53 7.51 51.19 20.92 13.67 13.41 21.52 31.65 21.88 50.79 0 40.3-32.73 72.19-73.07 72.19-40.31 0-73.07-31.89-73.07-72.19z"/>
	<path fill-rule="evenodd" class="s0" d="m2263.58 118.31h5.06v5.04h-5.06zm130.19 56.24h-76.44l-3.35-4.2h82.32zm47.03-56.24h5.02v5.04h-5.02z"/>
	<path fill-rule="evenodd" class="s0" d="m2299.7 117.48l-0.83 2.51-7.56 2.52 1.67-10.07v0.84c0 0 3.37-2.52 5.89-5.88 5.04-0.84 11.76-2.52 14.28-4.2l4.19 0.83 1.7 1.69 5.04 3.35c0 0 2.5-7.55 4.2-9.23 1.67-2.52 3.34-3.36 5.04-5.88 1.67-1.68 4.19-3.36 5.86-5.04 2.53-2.52 2.53-4.19 2.53-4.19l0.83-5.05-3.37-0.83-0.83-0.84-5.87 0.84-0.86 0.86-1.67 0.84-1.68 0.84-1.69-0.84-0.83-1.67 0.83-0.84 0.85-0.83 5.04-0.83 0.83-1.69-1.68-0.86-5.87 1.67-1.67-0.84v-1.69l0.83-0.83 0.83-0.84v-1.67l0.82-0.84h1.7l10.91-3.36 0.83-0.83 9.26-2.51v-6.72l6.71 8.39c1.7 0 2.52 0 2.52 0.84 1.68 2.52-0.82 2.52-0.82 4.2 0.82 0.84 3.34-0.84 4.19 1.67 0.83 2.51-2.52 1.69-1.69 3.37 0.82 1.67 2.52-0.84 3.36 1.67 0.83 2.51-2.52 1.67-2.52 3.36 0.85 1.67 2.52 0.82 2.52 3.35 0 1.68-2.52 0.84-2.52 2.53 0 0.83 1.69 0 1.69 3.35 0 2.51-2.52 0.83-2.52 2.51 0 0.83 1.7 1.67 0.83 2.52-1.67 2.52-2.5 0.84-2.5 1.68-0.83 1.67 1.67 1.67 1.67 4.2-0.83 0.83-3.37 0.83-3.37 0.83 0 0 0 3.35 1.7 5.04l5.04 0.84 7.56 0.84c0 0 9.24-1.68 15.1 0 4.2 0.84 8.4 6.72 9.27 6.72q0.69 0.31 1.43 0.47 0.74 0.15 1.5 0.15 0.76 0 1.5-0.15 0.74-0.16 1.43-0.47c1.68-1.68 5.87-4.19 9.24-4.19q3.78-1.26 7.56 5.03c1.68 5.04-5.03 20.99-4.19 28.54 0 2.51 2.52 4.2 2.52 4.2-5.89 3.35-14.3-3.36-14.3-9.24 0-6.71 0.83-4.2 3.37-10.9 1.67-7.56-0.83-7.56-1.7-8.4-0.82-1.67-2.5-0.83-2.5-0.83l-4.19 1.67c2.52 7.56 0 10.08-1.67 11.75-3.37 5.04-1.7 7.55-1.7 8.4 0.83 2.51 2.53 5.03 3.37 6.72 1.67 0.83 3.37 2.51 3.37 2.51v2.51c-2.53 1.69-5.9 5.89-8.4 10.07-0.83 1.68-1.7 3.35-1.7 3.35v2.52c0 0-5.03-0.84-5.86 0.84 0 0-0.83 1.68 2.52 1.68l-0.85 1.67h-9.24l1.7-4.19 3.34-3.36c1.7-0.84 6.74-5.88 7.57-7.55 1.69-2.51 2.52-2.51 2.52-5.04-0.83-2.51-5.89-5.04-7.56-5.88-1.67-1.67-4.2-5.04-4.2-8.39-0.83 1.68-1.67 0.83-1.67 4.19 0 3.36 3.34 8.4 5.04 10.07 0.83 0.83 0.83 0.83 0.83 1.68v0.83l-0.83 0.84c0 0-8.4 6.71-10.09 8.4-1.67 0.84-0.83 2.51-0.83 2.51l-0.83 0.83c0 0-5.04-0.83-5.87 0.84 0 0-0.85 2.53 2.5 2.53l-0.83 2.51h-9.23l2.5-6.72q0.67-0.35 1.27-0.8 0.61-0.45 1.15-0.98 0.53-0.53 0.98-1.14 0.44-0.61 0.79-1.28c0.24-0.44 5.07-1.68 6.74-3.35 1.67-0.85 4.2-2.53 3.37-5.04 0-2.53-5.04-6.73-5.04-6.73 0-0.84-3.37-4.19-3.37-5.88-0.83-1.67-0.83-3.35-0.83-3.35l1.67-5.04c0 0-14.27 1.67-15.96 1.67-1.67-0.84-4.19-0.84-4.19-0.84l-11.74-4.2-0.85 1.67-1.68 0.84-16.8-9.22h-3.36c0 0-5.04 6.71-5.04 8.38-0.83 0.84 0 3.36 0 3.36v0.84c0 0-3.37-1.68-3.37 0 0 1.68 2.53 2.51 2.53 2.51l0.82 1.69-6.73 5.86-1.67-8.38c1.67-5.04 0.83-3.36 1.67-8.39 0 0 5.89-6.71 7.56-10.91l6.74-1.67 0.83 0.83 6.73 2.51-7.56-7.55-5.04-1.67-6.74 4.2-0.82 1.67-1.7 0.83c0 0-2.5-3.36-4.2-0.83-0.87 1.75 2.5 2.59 2.5 2.59z"/>
	<path class="s1" d="m2251 118.31c0-57.92 46.16-104.91 104.13-104.91 57.97 0 104.99 46.99 104.99 104.91 0 57.07-47.04 104.09-104.99 104.09-57.95 0-104.13-47.02-104.13-104.09z"/>
	<path fill-rule="evenodd" class="s0" d="m1375.84 312.21c62.14 0.84 70.53-62.97 70.53-62.97h23.53c-6.73 52.88-56.26 87.31-104.99 87.31-59.63 0-106.66-53.75-106.66-122.56 0-69.67 47.02-115.82 106.66-115.82v18.45c-11.76 0-21 10.08-21 20.99v66.31h42v-66.31c0-10.91-10.07-20.99-21-20.99v-18.45c59.62 0 106.66 46.16 106.66 115.82v6.71c0 0.86-0.83 1.7-0.83 2.53h-126.83v39.44c-0.83 35.28 13.43 49.54 31.93 49.54zm-402.3-5.9h20.98v22.67h-123.46v-22.67h21v-182.12h-21v-20.99h102.48zm-92.4-253.47c0-19.3 21-39.44 47.03-39.44 26.88 0 47.88 20.14 47.88 39.44 0 19.3-21 40.29-47.88 40.29-26.03 0-47.03-20.97-47.03-40.29zm-542.56-5.01c-86.52 0.83-148.67 78.9-147.83 165.35 0.84 85.61 62.16 161.15 147.83 161.15 49.54 0 78.95-17.63 115.9-54.57v27.71c-50.39 49.51-113.39 66.31-168.82 62.94-112.54-7.54-206.61-90.65-204.92-203.12 0.83-110.79 93.21-197.24 204.92-198.93 35.29 0 56.27 4.2 89.03 19.3v-25.17l81.48 73.86v26.86c-31.93-39.45-67.21-55.39-117.59-55.38zm361.98 258.48h21.01v22.67h-102.48v-180.45c0-12.59-10.07-22.67-22.68-22.67-12.59 0-22.67 10.08-22.67 22.67v157.78h21v22.67h-123.47v-22.67h21.01v-182.12h-21.01v-20.98h102.47v15.1c12.59-15.1 31.92-22.66 55.43-22.66 39.47 0 71.39 16.78 71.39 54.55zm137.74-296.27v93.16h20.16v20.99h-20.16v182.12h20.16v22.67h-125.14v-22.67h21.01v-182.12h-21.01v-15.11zm398.1 296.27h21v22.67h-102.47v-180.45c0-12.59-10.08-22.67-22.67-22.67-12.59 0-22.67 10.08-22.67 22.67v157.78h21v22.67h-123.47v-22.67h20.99v-182.12h-20.99v-20.99h102.47v15.11q18.88-22.66 55.43-22.66c39.47 0 71.38 16.78 71.38 54.55z"/>
	<path fill-rule="evenodd" class="s0" d="m248.7 213.15c0-68.83 48.72-121.71 109.19-121.71v22.67c-11.76 0-21 10.08-21 20.99v159.49c-0.02 2.76 0.5 5.5 1.55 8.06 1.05 2.56 2.59 4.88 4.55 6.83 1.95 1.96 4.28 3.5 6.84 4.54 2.55 1.05 5.3 1.57 8.06 1.54 10.92 0 20.15-9.23 20.15-20.97v-159.48c0-10.91-9.23-20.99-20.15-20.99v-22.66c59.62 0 104.14 52.87 104.14 121.71 0 68.8-47.02 125.05-106.65 125.05-59.63 0-106.66-56.25-106.68-125.07zm1458.02-62.95v156.11h21.03v22.67h-102.49v-180.45c0-12.59-10.89-22.67-23.5-22.67-11.76 0-22.67 10.08-22.67 22.67v157.78h20.97v22.67h-123.43v-22.67h20.97v-182.12h-20.97v-20.99h102.46v15.11c13.44-15.11 31.91-22.66 56.27-22.66 39.47 0 71.38 16.78 71.38 54.55zm498.91-129.25v286.21h21v22.66h-120.95v-22.66h20.15v-263.55h-18.47v-22.66zm-361.98-10.91v93.16h21v20.99h-21v182.12h21v22.67h-125.16v-22.67h21v-182.12h-21v-15.1zm42.83 140.15v-28.52c25.2-17.64 56.27-26.87 89.87-26.87 8.4 0 17.64 0.84 26.03 1.67 8.4 0.85 28.57 5.04 37.8 12.59 19.3 13.44 29.41 16.79 31.93 60.44v137.62h20.14v22.67h-98.26v-7.54c0 0-5.87 5.03-20.17 10.07-7.54 2.51-18.47 5.03-29.4 5.03-46.17 0-73.9-43.65-73.9-89.81 0-51.21 32.77-92.34 80.63-92.34 7.57 0 15.98 1.69 21.84 4.2v22.67c-10.9 0-20.14 10.06-20.14 20.98v85.63c-0.04 2.65 0.46 5.29 1.46 7.75 1 2.46 2.48 4.69 4.36 6.57 1.88 1.88 4.11 3.36 6.57 4.36 2.46 1 5.1 1.49 7.75 1.46 10.94 0 19.33-9.24 19.33-20.14v-85.63c0-10.92-8.39-20.98-19.33-20.98v-22.67c10.94 5.05 21 14.28 21 14.28v-24.33c0-15.1 0.83-18.46-6.71-24.34-7.56-5.88-15.13-5.88-25.19-5.88-13.46 0-21.86 1.68-34.43 6.72-17.67 7.55-26.07 14.28-41.17 24.34z"/>
</svg>