<svg version="1.2" xmlns="http://www.w3.org/2000/svg" viewBox="0 0 2274 544" width="2274" height="544">
	<style>
		.s0 { fill: #28539c } 
		.s1 { fill: #f4cf53 } 
	</style>
	<g>
		<path fill-rule="evenodd" class="s0" d="m-0.15 1.54h2271.92v545.6h-2271.92z"/>
		<path fill-rule="evenodd" class="s1" d="m844.82 283.2c-13.99 70.88-58.75 93.27-117.51 95.13-57.82 0.93-92.33-44.77-80.21-98.86 10.26-54.09 56.89-93.26 107.26-92.33 54.09 0.93 103.52 33.56 90.46 96.06zm-82.07-71.8c-12.12-0.94-16.79 11.19-21.45 25.18-9.33 28.91-17.72 58.75-23.32 88.6-0.93 11.2-0.93 26.1 8.4 27.98 11.19 1.86 18.65-11.2 21.45-22.39 9.33-27.98 15.85-56.89 22.38-84.87 1.87-11.2 8.4-32.65-7.46-34.5zm-130.58 71.8c-13.06 70.88-59.69 93.27-117.51 95.13-58.75 0.93-92.34-44.77-81.14-98.86 11.2-54.09 56.9-93.26 108.2-92.33 53.16 0.93 103.52 33.56 90.45 96.06zm-82.99-71.8c-12.13-0.94-14.93 11.19-21.45 25.18-8.4 28.91-16.79 58.75-21.46 88.6-2.79 11.2-2.79 26.1 6.53 27.98 12.13 1.86 19.59-11.2 22.39-22.39 8.39-27.98 15.85-56.89 22.38-84.87 1.87-11.2 8.39-32.65-8.39-34.5zm-210.79 62.49h80.2l-26.11 103.52h-115.65c-65.28-2.81-78.34-64.36-65.28-102.59 10.26-41.05 49.43-84.88 123.11-85.81 22.38 0.93 41.96 6.52 59.68 19.58l-19.58 26.11c-8.39-8.39-16.79-14.92-28.91-14.92-16.79-0.93-23.32 7.46-26.12 17.72l-23.31 86.74c-0.92 6.53-0.92 17.72 12.13 16.79 10.26 0.93 14.93-6.53 16.79-13.06zm778.77-52.24c-4.66-11.19-12.12-23.32-15.85-34.51l62.48-41.97 4.65 7.46h-0.93c0.93 9.33 0.93 17.72 2.81 27.98 0 0.93 0 1.87-0.93 2.8zm43.83 112.86l-34.5-62.48 53.17-32.65c0.91 2.8 3.72 6.53 4.65 10.26l7.46 9.33 13.06 13.06q2.62-2.27 5.15-4.64 2.54-2.36 4.99-4.81 2.45-2.45 4.81-4.98 2.36-2.54 4.63-5.16l14.93 27.05-0.94 0.93-9.34 3.73-8.36 4.65-8.4 4.66-6.53 3.73-7.46 5.6-13.05 9.33-5.6 4.65c-5.62 5.61-11.22 10.26-15.87 15.86zm-41.95-67.16c1.86-5.59 2.79-10.26 2.79-13.06 1.87-8.39 1.87-14.92 0-21.45l49.43 1.87zm51.27-60.62l1.88 11.19c0.95 3.73 0.95 6.53 1.85 9.32l-47.55-1.86 42.9-31.71c0 3.73 0 8.39 0.92 13.06zm364.69 133.36h67.14l-10.25 37.31h-151.08l45.68-187.47h152.04l-8.41 33.58h-67.14l-8.41 34.51h43.85l-9.34 36.38h-42.9zm-56.9-150.17l-88.6 109.13-17.71 78.34h-89.54l20.52-83-31.72-104.47h92.34l16.77 62.5 52.25-62.5zm588.5 54.1c-5.59 31.7-15.83 46.63-41.97 61.56l18.66 71.81h-87.69l-17.71-69.01-20.52 69.01h-89.53l52.22-187.47h130.57c23.33 0.94 60.64 6.54 55.97 54.1zm-95.13-30.77h-13.99l-14.92 71.81h11.2c13.06 0 13.99-9.33 16.78-16.79 3.74-13.99 7.46-27.98 8.39-42.9 2.81-6.53-0.93-13.06-7.46-12.12zm-179.08-23.33l22.39 187.47h-84.88l-4.65-31.71h-60.62l-18.64 31.71h-40.13l113.79-187.47zm-71.78 121.25l-4.68-49.43-29.83 49.43zm-653.8-38.24c-8.39 51.3-37.3 103.53-118.44 104.46h-109.12l47.56-187.47h112.85c41.97 2.81 74.62 31.72 67.15 83.01zm-83.93-54.09h-18.66l-34.5 129.64h13.99c14.92-0.93 20.51-10.26 23.31-21.45l23.32-85.81c3.73-13.05-0.94-22.38-7.46-22.38z"/>
		<path fill-rule="evenodd" class="s1" d="m1258.93 175.02c0 11.19-0.95 22.38-5.6 35.44-5.59-1.87-9.34-5.6-12.12-9.33 0 9.33 0 17.72-3.74 27.05-5.6-1.87-10.25-4.67-13.06-9.33-2.79 14.92-10.25 24.25-19.59 33.57-16.8-14.92-23.33-45.69-20.51-72.74-3.75-24.25-5.59-48.5 15.86-64.35 13.99-8.4 41.99-11.2 67.15-8.4l143.63 1.87c9.34-0.93 20.52-5.6 27.05-9.33-0.94 22.38-30.79 44.77-55.03 44.77l-68.08 0.93c6.51 5.6 9.33 9.33 8.39 10.26-2.81 3.73-14.92 5.6-27.98 9.33 5.6 2.79 12.13 5.59 13.06 12.12-14 7.46-32.64 6.53-49.43-1.86zm-39.17 1.86c-8.41-0.93-15.87-2.8-22.4-7.46 3.75 5.6 3.75 13.06 3.75 19.59 6.52 2.79 11.17 7.46 16.77 10.25-0.93-7.46 0-14.92 1.88-22.38zm62.47-46.63c-9.34 3.73-18.66 4.66-27.98-0.93-3.74 12.12-13.04 12.12-25.19 9.32-3.72 7.46-12.11 12.13-21.43 15.86 10.25 5.59 19.58 6.53 28.89 0.93 10.27 1.87 16.8 0 22.4-8.39 13.05-0.94 20.52-6.53 23.31-16.79zm-37.29 158.53l8.39 13.07c-95.13 42.91-99.81 109.12-192.13 147.36l-9.33-12.13 6.53-3.74 9.33-3.73 6.52-4.65 8.41-2.83 5.6-4.67 7.46-4.66 5.59-3.73 5.6-5.6 5.6-4.66 5.59-4.65 9.33-10.26q4.87-4.81 9.69-9.66 4.83-4.86 9.61-9.75 4.78-4.9 9.52-9.84 4.73-4.94 9.43-9.92l10.24-10.26 10.28-10.26 6.53-3.73 4.65-4.66 7.46-4.65 6.53-4.66 6.52-4.66 7.46-4.66 8.4-2.8 8.39-4.66zm-190.27 135.26l-8.39 3.73h-0.94c-13.99-21.45 8.4-36.37 25.19-49.43 3.73-41.04 34.5-80.19 46.63-106.32l38.24 68.09-1.88 1.87c-11.19 11.19-21.44 24.25-32.63 35.44l-9.33 9.33-11.19 8.39-4.66 4.65-6.53 4.66-5.6 4.65-7.46 2.8-5.59 4.67-8.4 3.73z"/>
	</g>
</svg>