<svg version="1.2" xmlns="http://www.w3.org/2000/svg" viewBox="0 0 697 173" width="697" height="173">
	<defs>
		<clipPath clipPathUnits="userSpaceOnUse" id="cp1">
			<path d="m-813-577h2560v1440h-2560z"/>
		</clipPath>
	</defs>
	<style>
		.s0 { fill: #9a9b9c } 
		.s1 { fill: #000000 } 
		.s2 { fill: #ec6608 } 
	</style>
	<g id="g8">
		<g id="g10">
			<g id="Clip-Path: g12" clip-path="url(#cp1)">
				<g id="g12">
					<g id="g38">
					</g>
					<g id="g42">
					</g>
					<g id="g46">
					</g>
					<g id="g50">
					</g>
					<g id="g54">
					</g>
					<g id="g58">
					</g>
					<g id="g62">
					</g>
					<g id="g66">
					</g>
					<g id="g70">
					</g>
					<g id="g74">
					</g>
					<g id="g78">
					</g>
					<g id="g82">
					</g>
					<g id="g86">
					</g>
					<g id="g90">
					</g>
					<g id="g94">
					</g>
					<g id="g98">
					</g>
					<g id="g102">
					</g>
					<g id="g106">
					</g>
					<g id="g110">
					</g>
					<g id="g114">
					</g>
					<g id="g118">
					</g>
					<g id="g122">
					</g>
					<g id="g126">
					</g>
					<g id="g130">
					</g>
					<g id="g134">
					</g>
					<g id="g138">
					</g>
					<g id="g142">
					</g>
					<g id="g146">
					</g>
					<g id="g150">
					</g>
					<g id="g154">
					</g>
					<g id="g158">
					</g>
					<g id="g162">
					</g>
					<g id="g166">
					</g>
					<g id="g170">
					</g>
					<g id="g174">
					</g>
					<g id="g178">
					</g>
					<g id="g182">
					</g>
					<g id="g186">
					</g>
					<g id="g190">
					</g>
					<g id="g194">
					</g>
					<g id="g198">
					</g>
					<g id="g202">
					</g>
					<g id="g206">
					</g>
					<g id="g210">
					</g>
					<g id="g214">
					</g>
					<g id="g218">
					</g>
					<g id="g222">
					</g>
					<g id="g226">
					</g>
					<g id="g230">
					</g>
					<g id="g234">
					</g>
					<g id="g238">
					</g>
					<g id="g242">
					</g>
					<g id="g246">
					</g>
					<g id="g250">
					</g>
					<g id="g254">
					</g>
					<g id="g258">
					</g>
					<g id="g262">
					</g>
					<g id="g266">
					</g>
					<g id="g270">
					</g>
					<g id="g274">
					</g>
					<g id="g278">
					</g>
					<g id="g282">
					</g>
					<g id="g286">
					</g>
					<g id="g290">
					</g>
					<g id="g294">
					</g>
					<g id="g298">
					</g>
					<g id="g302">
					</g>
					<g id="g306">
					</g>
					<g id="g310">
					</g>
					<g id="g314">
					</g>
					<g id="g318">
					</g>
					<g id="g322">
					</g>
					<g id="g326">
					</g>
					<g id="g330">
					</g>
					<g id="g334">
					</g>
					<g id="g338">
					</g>
					<g id="g342">
					</g>
					<g id="g346">
					</g>
					<g id="g350">
					</g>
					<g id="g354">
					</g>
					<g id="g358">
					</g>
					<g id="g362">
					</g>
					<g id="g366">
					</g>
					<g id="g370">
					</g>
					<g id="g374">
					</g>
					<g id="g378">
					</g>
					<g id="g382">
						<path id="path384" class="s0" d="m272.6 141.25l2.19-7.48c2.28-7.93 7.4-10.71 14.84-10.71 2.57 0 6.56 0.75 7.97 1.69l3.13-10.61 5.85-1.49-11.03 38.37h-4.92l0.05-2.14c-3.51 1.69-6.48 2.63-10.2 2.63-7.6 0-9.49-4.76-7.88-10.26zm23.81-12.29c-1.62-1.04-4.53-1.54-6.39-1.54-4.76 0-8.19 1.34-9.8 6.84l-1.91 6.6c-1.23 4.11-0.18 6.24 3.7 6.24 2.9 0 6.79-0.94 9.86-2.53z"/>
					</g>
					<g id="g386">
						<path id="path388" class="s0" d="m325.78 128.07c-3.35 0.2-7.24 1.04-10.56 3.02l-5.67 19.92h-5.47l7.86-27.35h4.87l-0.26 2.77c2.07-1.38 6.04-3.37 10.69-3.37z"/>
					</g>
					<g id="g390">
						<path id="path392" class="s0" d="m339.92 118.55h-5.46l1.55-5.5h5.47zm-9.34 32.46h-5.46l7.86-27.35h5.47z"/>
					</g>
					<g id="g394">
						<path id="path396" class="s0" d="m352.07 151.02h-6.34l-2.3-27.36h5.63l0.84 16.85c0.03 1.73 0.06 3.52 0.17 5.85h0.05c1.48-2.33 2.49-4.12 3.66-5.85l10.53-16.85h5.85z"/>
					</g>
					<g id="g398">
						<path id="path400" class="s0" d="m381.58 118.55h-5.47l1.55-5.5h5.47zm-9.33 32.46h-5.47l7.86-27.35h5.47z"/>
					</g>
					<g id="g402">
						<path id="path404" class="s0" d="m404.77 151.02h-5.47l5.3-18.49c0.95-3.22 0.81-5.01-2.8-5.01-2.62 0-6.24 0.8-9.7 2.53l-5.97 20.97h-5.47l7.87-27.36h4.86l-0.05 2.13c3.24-1.64 6.76-2.73 9.94-2.73 6.61 0 8.55 3.37 7.08 8.43z"/>
					</g>
					<g id="g406">
						<path id="path408" class="s0" d="m414.33 140.76l1.98-6.89c2.27-7.83 7.3-10.81 14.51-10.81 2.85 0 6.51 0.8 8.35 2.43l0.96-1.83h4.86l-8.29 28.74c-1.97 6.74-5.63 9.67-15.31 9.67-2.51 0-5.71-0.35-7.6-0.75l1.24-4.21c1.94 0.45 4.65 0.7 6.57 0.7 6.12 0 8.51-1.24 9.78-5.9l0.74-2.68c-2.94 1.34-6.44 2.08-9.94 2.08-7.65 0-9.54-4.76-7.85-10.55zm23.51-11.3c-1.11-1.24-4.11-2.03-7.34-2.03-3.66 0-7.1 1.43-8.71 6.93l-1.75 6.05c-1.31 4.41-0.43 6.49 3.89 6.49 3.12 0 6.35-0.79 9.44-2.03z"/>
					</g>
					<g id="g410">
						<path id="path412" class="s0" d="m486.63 138.82h-19.68l-0.3 1.09c-1.31 4.42-0.7 7.29 6.46 7.29 2.29 0 5.59-0.25 8.72-1.19l-1.23 4.11c-2.75 0.99-5.84 1.39-8.36 1.39-9.67 0-13.2-4.11-10.7-12.79l0.88-3.07c2.64-9.12 8.36-12.59 15.58-12.59 7.87 0 12.08 3.77 9.28 13.48zm-4.19-3.91l0.08-0.35c1.12-4.06 0.21-7.29-5.15-7.29-5.08 0-8.05 3.23-9.17 7.29l-0.08 0.35z"/>
					</g>
					<g id="g414">
						<path id="path416" class="s0" d="m529.51 151.02h-5.46l5.37-18.74c0.95-3.22 0.4-4.76-2.71-4.76-2.19 0-5.04 0.85-8.39 2.53l-0.23 0.89-5.74 20.08h-5.47l5.37-18.74c0.95-3.22 0.41-4.76-2.76-4.76-2.19 0-4.87 0.8-8.34 2.53l-5.97 20.97h-5.46l7.86-27.36h4.86l-0.04 2.13c2.96-1.59 6.37-2.73 9.16-2.73 3.83 0 5.99 1.09 6.71 3.18 3.81-1.99 7.89-3.18 10.46-3.18 6.23 0 8 2.78 6.53 7.88z"/>
					</g>
					<g id="g418">
						<path id="path420" class="s0" d="m565.48 139.22c-2.29 7.98-7.74 12.29-16 12.29-8.2 0-12.11-4.71-9.83-12.69l1.02-3.47c2.28-7.98 7.74-12.29 15.94-12.29 8.25 0 12.17 4.71 9.89 12.69zm-4.43-3.67c1.69-5.9-0.55-8.18-5.14-8.18-4.59 0-8.1 2.28-9.79 8.18l-1.02 3.47c-1.69 5.9 0.6 8.18 5.08 8.18 4.65 0 8.15-2.28 9.85-8.18z"/>
					</g>
					<g id="g422">
						<path id="path424" class="s0" d="m591.12 127.97h-7.82l-4.41 15.41c-0.74 2.58-0.44 3.67 1.86 3.67 1.7 0 3.63-0.25 5.14-0.79l-1.23 4.11c-1.59 0.84-4.13 1.14-5.88 1.14-4.81 0-6.97-2.53-5.72-6.89l4.78-16.65h-4.81l1.3-4.31h4.81l1.62-5.65 5.85-1.49-2 7.14h7.81z"/>
					</g>
					<g id="g426">
						<path id="path428" class="s0" d="m605.59 118.55h-5.47l1.56-5.5h5.46zm-9.33 32.46h-5.47l7.87-27.35h5.46z"/>
					</g>
					<g id="g430">
						<path id="path432" class="s0" d="m632.6 139.22c-2.28 7.98-7.74 12.29-15.99 12.29-8.2 0-12.12-4.71-9.83-12.69l1.02-3.47c2.28-7.98 7.73-12.29 15.93-12.29 8.26 0 12.18 4.71 9.89 12.69zm-4.43-3.67c1.69-5.9-0.54-8.18-5.14-8.18-4.59 0-8.09 2.28-9.78 8.18l-1.02 3.47c-1.7 5.9 0.6 8.18 5.08 8.18 4.65 0 8.15-2.28 9.84-8.18z"/>
					</g>
					<g id="g434">
						<path id="path436" class="s0" d="m660.22 151.02h-5.47l5.29-18.49c0.95-3.22 0.81-5.01-2.8-5.01-2.62 0-6.23 0.8-9.7 2.53l-5.97 20.97h-5.46l7.86-27.36h4.87l-0.05 2.13c3.23-1.64 6.76-2.73 9.93-2.73 6.61 0 8.55 3.37 7.09 8.43z"/>
					</g>
					<g id="g438">
						<path id="path440" class="s1" d="m652.33 66.99l13.85 32.67h-23.33l-12.55-34.03-9.61 34.03h-22.44l19.59-68.15h22.41l-8.61 29.56c0 0 13.75-7.25 24.59-29.56h23.72c-11.39 24.42-27.62 35.48-27.62 35.48z"/>
					</g>
					<g id="g442">
						<path id="path444" class="s1" d="m373.31 51.05l-13.7 48.61h-22.43l12.42-44.05c1.03-3.79 1.75-6.82 0.25-8.25-1.35-1.28-3.29-1.44-5.7-1.44l-11.64 0.34-15.34 53.4h-22.42l19.51-68.13c2.66-0.13 22.6-1.08 42.4-1.54 7.59-0.19 12.82 1.52 15.59 5.07 2.73 3.52 3.09 8.91 1.06 15.99z"/>
					</g>
					<g id="g446">
						<path id="path448" class="s1" d="m426.7 66.99l13.85 32.67h-23.34l-12.54-34.03-9.62 34.03h-22.44l19.59-68.15h22.42l-8.62 29.56c0 0 13.76-7.25 24.59-29.56h23.72c-11.38 24.42-27.61 35.48-27.61 35.48z"/>
					</g>
					<g id="g450">
						<path id="path452" class="s1" d="m518.99 38.27c-4.19-5.53-12.41-8.33-24.4-8.33-23.28 0-38.05 10.36-43.9 30.8l-2.87 9.95c-2.78 9.68-2.23 17.16 1.62 22.22 4.2 5.53 12.41 8.33 24.4 8.33 23.28 0 38.05-10.37 43.9-30.81l2.87-9.95c2.78-9.67 2.23-17.14-1.62-22.21zm-21.12 23.34l-2.37 8.22c-3.12 10.86-8.14 15.49-16.81 15.49-3.9 0-6.51-0.95-7.98-2.87-1.9-2.5-1.95-6.59-0.15-12.87l2.37-8.23c3.12-10.85 8.14-15.48 16.81-15.48 3.9 0 6.51 0.93 7.98 2.85 1.9 2.51 1.95 6.6 0.15 12.89z"/>
					</g>
					<g id="g454">
						<path id="path456" class="s1" d="m597.76 38.27c-4.19-5.53-12.41-8.33-24.4-8.33-23.28 0-38.05 10.36-43.9 30.8l-2.87 9.95c-2.77 9.68-2.23 17.16 1.62 22.22 4.2 5.53 12.41 8.33 24.42 8.33 23.27 0 38.03-10.37 43.88-30.81l2.87-9.95c2.78-9.67 2.24-17.14-1.62-22.21zm-21.12 23.34l-2.37 8.22c-3.11 10.86-8.14 15.49-16.81 15.49-3.9 0-6.51-0.95-7.97-2.87-1.9-2.5-1.95-6.59-0.16-12.87l2.37-8.23c3.12-10.85 8.16-15.48 16.81-15.48 3.9 0 6.51 0.93 7.98 2.85 1.9 2.51 1.95 6.6 0.15 12.89z"/>
					</g>
					<g id="g458">
						<path id="path460" class="s1" d="m295.34 38.95c-1.71-3.18-4.86-5.45-9.63-6.93-3.65-1.12-8.29-1.78-13.84-1.97-0.2 0-20.1-0.32-32.08 2.02l-3.82 13.53c12.08-1.38 23.54-1.77 28.49-1.61 5.37 0.18 7.93 0.88 9.12 2.49 1.03 1.4 1.12 3.49 0.01 7.18l-0.74 2.68h-8.5c-23.73 0-37.74 3.03-42.08 18.99-1.67 6.14-0.9 12.57 2.58 17.1 3.73 4.87 8.77 7.23 17.4 7.23h40.08l12.95-44.53c2.11-7.05 2.14-12.33 0.06-16.18zm-31.05 46.83l-10.94 0.32c-2.74 0-5.28 0.11-7.32-2.06-1.35-1.45-2.27-3.85-1.76-6.28 1.46-6.91 9.4-7.94 15.96-7.94h8.7z"/>
					</g>
					<g id="g462">
						<path id="path464" class="s1" d="m203.47 31.52l-7.33 25.76h-20.08l7.33-25.76h-22.58l-19.51 68.14h22.54l7.78-26.86h20.09l-7.78 26.86h22.62l19.5-68.14z"/>
					</g>
					<g id="g466">
						<path id="path468" class="s2" d="m128.12 21.93c-2.5 23.9-17.02 44.28-37.51 55.17-0.58 0.31-1.12-0.46-0.61-0.88 15.85-13.15 26.22-32.52 27.23-54.29h-20.1c-2.48 18.51-14.16 34.16-30.37 42.34-0.58 0.28-1.09-0.47-0.61-0.89 11.69-10.32 19.33-25 20.29-41.45h-20.16c-1.42 8.4-5.73 15.68-11.26 21.74-13.62 14.9-35.6 16.56-46.27 15.72 0 0-0.5-0.08-0.66 0.32-0.17 0.43 0.31 0.7 0.31 0.7 17.73 9.95 31.85 19.37 57.56 38.29 6.32 4.64 12.28 5.98 18.55 4.52 40.08-9.4 63.41-50.85 63.66-81.29z"/>
						<path id="path384 copy" class="s0" d="m272.6 141.25l2.19-7.48c2.28-7.93 7.4-10.71 14.84-10.71 2.57 0 6.56 0.75 7.97 1.69l3.13-10.61 5.85-1.49-11.03 38.37h-4.92l0.05-2.14c-3.51 1.69-6.48 2.63-10.2 2.63-7.6 0-9.49-4.76-7.88-10.26zm23.81-12.29c-1.62-1.04-4.53-1.54-6.39-1.54-4.76 0-8.19 1.34-9.8 6.84l-1.91 6.6c-1.23 4.11-0.18 6.24 3.7 6.24 2.9 0 6.79-0.94 9.86-2.53z"/>
						<path id="path388 copy" class="s0" d="m325.78 128.07c-3.35 0.2-7.24 1.04-10.56 3.02l-5.67 19.92h-5.47l7.86-27.35h4.87l-0.26 2.77c2.07-1.38 6.04-3.37 10.69-3.37z"/>
						<path id="path392 copy" class="s0" d="m339.92 118.55h-5.46l1.55-5.5h5.47zm-9.34 32.46h-5.46l7.86-27.35h5.47z"/>
						<path id="path396 copy" class="s0" d="m352.07 151.02h-6.34l-2.3-27.36h5.63l0.84 16.85c0.03 1.73 0.06 3.52 0.17 5.85h0.05c1.48-2.33 2.49-4.12 3.66-5.85l10.53-16.85h5.85z"/>
						<path id="path400 copy" class="s0" d="m381.58 118.55h-5.47l1.55-5.5h5.47zm-9.33 32.46h-5.47l7.86-27.35h5.47z"/>
						<path id="path404 copy" class="s0" d="m404.77 151.02h-5.47l5.3-18.49c0.95-3.22 0.81-5.01-2.8-5.01-2.62 0-6.24 0.8-9.7 2.53l-5.97 20.97h-5.47l7.87-27.36h4.86l-0.05 2.13c3.24-1.64 6.76-2.73 9.94-2.73 6.61 0 8.55 3.37 7.08 8.43z"/>
						<path id="path408 copy" class="s0" d="m414.33 140.76l1.98-6.89c2.27-7.83 7.3-10.81 14.51-10.81 2.85 0 6.51 0.8 8.35 2.43l0.96-1.83h4.86l-8.29 28.74c-1.97 6.74-5.63 9.67-15.31 9.67-2.51 0-5.71-0.35-7.6-0.75l1.24-4.21c1.94 0.45 4.65 0.7 6.57 0.7 6.12 0 8.51-1.24 9.78-5.9l0.74-2.68c-2.94 1.34-6.44 2.08-9.94 2.08-7.65 0-9.54-4.76-7.85-10.55zm23.51-11.3c-1.11-1.24-4.11-2.03-7.34-2.03-3.66 0-7.1 1.43-8.71 6.93l-1.75 6.05c-1.31 4.41-0.43 6.49 3.89 6.49 3.12 0 6.35-0.79 9.44-2.03z"/>
						<path id="path412 copy" class="s0" d="m486.63 138.82h-19.68l-0.3 1.09c-1.31 4.42-0.7 7.29 6.46 7.29 2.29 0 5.59-0.25 8.72-1.19l-1.23 4.11c-2.75 0.99-5.84 1.39-8.36 1.39-9.67 0-13.2-4.11-10.7-12.79l0.88-3.07c2.64-9.12 8.36-12.59 15.58-12.59 7.87 0 12.08 3.77 9.28 13.48zm-4.19-3.91l0.08-0.35c1.12-4.06 0.21-7.29-5.15-7.29-5.08 0-8.05 3.23-9.17 7.29l-0.08 0.35z"/>
						<path id="path416 copy" class="s0" d="m529.51 151.02h-5.46l5.37-18.74c0.95-3.22 0.4-4.76-2.71-4.76-2.19 0-5.04 0.85-8.39 2.53l-0.23 0.89-5.74 20.08h-5.47l5.37-18.74c0.95-3.22 0.41-4.76-2.76-4.76-2.19 0-4.87 0.8-8.34 2.53l-5.97 20.97h-5.46l7.86-27.36h4.86l-0.04 2.13c2.96-1.59 6.37-2.73 9.16-2.73 3.83 0 5.99 1.09 6.71 3.18 3.81-1.99 7.89-3.18 10.46-3.18 6.23 0 8 2.78 6.53 7.88z"/>
						<path id="path420 copy" class="s0" d="m565.48 139.22c-2.29 7.98-7.74 12.29-16 12.29-8.2 0-12.11-4.71-9.83-12.69l1.02-3.47c2.28-7.98 7.74-12.29 15.94-12.29 8.25 0 12.17 4.71 9.89 12.69zm-4.43-3.67c1.69-5.9-0.55-8.18-5.14-8.18-4.59 0-8.1 2.28-9.79 8.18l-1.02 3.47c-1.69 5.9 0.6 8.18 5.08 8.18 4.65 0 8.15-2.28 9.85-8.18z"/>
						<path id="path424 copy" class="s0" d="m591.12 127.97h-7.82l-4.41 15.41c-0.74 2.58-0.44 3.67 1.86 3.67 1.7 0 3.63-0.25 5.14-0.79l-1.23 4.11c-1.59 0.84-4.13 1.14-5.88 1.14-4.81 0-6.97-2.53-5.72-6.89l4.78-16.65h-4.81l1.3-4.31h4.81l1.62-5.65 5.85-1.49-2 7.14h7.81z"/>
						<path id="path428 copy" class="s0" d="m605.59 118.55h-5.47l1.56-5.5h5.46zm-9.33 32.46h-5.47l7.87-27.35h5.46z"/>
						<path id="path432 copy" class="s0" d="m632.6 139.22c-2.28 7.98-7.74 12.29-15.99 12.29-8.2 0-12.12-4.71-9.83-12.69l1.02-3.47c2.28-7.98 7.73-12.29 15.93-12.29 8.26 0 12.18 4.71 9.89 12.69zm-4.43-3.67c1.69-5.9-0.54-8.18-5.14-8.18-4.59 0-8.09 2.28-9.78 8.18l-1.02 3.47c-1.7 5.9 0.6 8.18 5.08 8.18 4.65 0 8.15-2.28 9.84-8.18z"/>
						<path id="path436 copy" class="s0" d="m660.22 151.02h-5.47l5.29-18.49c0.95-3.22 0.81-5.01-2.8-5.01-2.62 0-6.23 0.8-9.7 2.53l-5.97 20.97h-5.46l7.86-27.36h4.87l-0.05 2.13c3.23-1.64 6.76-2.73 9.93-2.73 6.61 0 8.55 3.37 7.09 8.43z"/>
						<path id="path440 copy" class="s1" d="m652.33 66.99l13.85 32.67h-23.33l-12.55-34.03-9.61 34.03h-22.44l19.59-68.15h22.41l-8.61 29.56c0 0 13.75-7.25 24.59-29.56h23.72c-11.39 24.42-27.62 35.48-27.62 35.48z"/>
						<path id="path444 copy" class="s1" d="m373.31 51.05l-13.7 48.61h-22.43l12.42-44.05c1.03-3.79 1.75-6.82 0.25-8.25-1.35-1.28-3.29-1.44-5.7-1.44l-11.64 0.34-15.34 53.4h-22.42l19.51-68.13c2.66-0.13 22.6-1.08 42.4-1.54 7.59-0.19 12.82 1.52 15.59 5.07 2.73 3.52 3.09 8.91 1.06 15.99z"/>
						<path id="path448 copy" class="s1" d="m426.7 66.99l13.85 32.67h-23.34l-12.54-34.03-9.62 34.03h-22.44l19.59-68.15h22.42l-8.62 29.56c0 0 13.76-7.25 24.59-29.56h23.72c-11.38 24.42-27.61 35.48-27.61 35.48z"/>
						<path id="path452 copy" class="s1" d="m518.99 38.27c-4.19-5.53-12.41-8.33-24.4-8.33-23.28 0-38.05 10.36-43.9 30.8l-2.87 9.95c-2.78 9.68-2.23 17.16 1.62 22.22 4.2 5.53 12.41 8.33 24.4 8.33 23.28 0 38.05-10.37 43.9-30.81l2.87-9.95c2.78-9.67 2.23-17.14-1.62-22.21zm-21.12 23.34l-2.37 8.22c-3.12 10.86-8.14 15.49-16.81 15.49-3.9 0-6.51-0.95-7.98-2.87-1.9-2.5-1.95-6.59-0.15-12.87l2.37-8.23c3.12-10.85 8.14-15.48 16.81-15.48 3.9 0 6.51 0.93 7.98 2.85 1.9 2.51 1.95 6.6 0.15 12.89z"/>
						<path id="path456 copy" class="s1" d="m597.76 38.27c-4.19-5.53-12.41-8.33-24.4-8.33-23.28 0-38.05 10.36-43.9 30.8l-2.87 9.95c-2.77 9.68-2.23 17.16 1.62 22.22 4.2 5.53 12.41 8.33 24.42 8.33 23.27 0 38.03-10.37 43.88-30.81l2.87-9.95c2.78-9.67 2.24-17.14-1.62-22.21zm-21.12 23.34l-2.37 8.22c-3.11 10.86-8.14 15.49-16.81 15.49-3.9 0-6.51-0.95-7.97-2.87-1.9-2.5-1.95-6.59-0.16-12.87l2.37-8.23c3.12-10.85 8.16-15.48 16.81-15.48 3.9 0 6.51 0.93 7.98 2.85 1.9 2.51 1.95 6.6 0.15 12.89z"/>
						<path id="path460 copy" class="s1" d="m295.34 38.95c-1.71-3.18-4.86-5.45-9.63-6.93-3.65-1.12-8.29-1.78-13.84-1.97-0.2 0-20.1-0.32-32.08 2.02l-3.82 13.53c12.08-1.38 23.54-1.77 28.49-1.61 5.37 0.18 7.93 0.88 9.12 2.49 1.03 1.4 1.12 3.49 0.01 7.18l-0.74 2.68h-8.5c-23.73 0-37.74 3.03-42.08 18.99-1.67 6.14-0.9 12.57 2.58 17.1 3.73 4.87 8.77 7.23 17.4 7.23h40.08l12.95-44.53c2.11-7.05 2.14-12.33 0.06-16.18zm-31.05 46.83l-10.94 0.32c-2.74 0-5.28 0.11-7.32-2.06-1.35-1.45-2.27-3.85-1.76-6.28 1.46-6.91 9.4-7.94 15.96-7.94h8.7z"/>
						<path id="path464 copy" class="s1" d="m203.47 31.52l-7.33 25.76h-20.08l7.33-25.76h-22.58l-19.51 68.14h22.54l7.78-26.86h20.09l-7.78 26.86h22.62l19.5-68.14z"/>
						<path id="path468 copy" class="s2" d="m128.12 21.93c-2.5 23.9-17.02 44.28-37.51 55.17-0.58 0.31-1.12-0.46-0.61-0.88 15.85-13.15 26.22-32.52 27.23-54.29h-20.1c-2.48 18.51-14.16 34.16-30.37 42.34-0.58 0.28-1.09-0.47-0.61-0.89 11.69-10.32 19.33-25 20.29-41.45h-20.16c-1.42 8.4-5.73 15.68-11.26 21.74-13.62 14.9-35.6 16.56-46.27 15.72 0 0-0.5-0.08-0.66 0.32-0.17 0.43 0.31 0.7 0.31 0.7 17.73 9.95 31.85 19.37 57.56 38.29 6.32 4.64 12.28 5.98 18.55 4.52 40.08-9.4 63.41-50.85 63.66-81.29z"/>
					</g>
					<g id="g472">
					</g>
					<g id="g476">
					</g>
					<g id="g480">
					</g>
					<g id="g484">
					</g>
					<g id="g488">
					</g>
					<g id="g492">
					</g>
					<g id="g496">
					</g>
					<g id="g500">
					</g>
					<g id="g506">
					</g>
					<g id="g510">
					</g>
					<g id="g514">
					</g>
					<g id="g518">
					</g>
					<g id="g522">
					</g>
					<g id="g528">
					</g>
					<g id="g532">
					</g>
					<g id="g536">
					</g>
					<g id="g540">
					</g>
					<g id="g544">
					</g>
					<g id="g548">
					</g>
					<g id="g552">
					</g>
					<g id="g556">
					</g>
					<g id="g560">
					</g>
					<g id="g564">
					</g>
					<g id="g568">
					</g>
					<g id="g572">
					</g>
					<g id="g576">
					</g>
					<g id="g580">
					</g>
					<g id="g584">
					</g>
					<g id="g588">
					</g>
					<g id="g592">
					</g>
					<g id="g596">
					</g>
					<g id="g600">
					</g>
					<g id="g604">
					</g>
					<g id="g608">
					</g>
					<g id="g612">
					</g>
					<g id="g616">
					</g>
					<g id="g620">
					</g>
					<g id="g624">
					</g>
					<g id="g628">
					</g>
					<g id="g632">
					</g>
					<g id="g636">
					</g>
					<g id="g640">
					</g>
					<g id="g644">
					</g>
					<g id="g648">
					</g>
					<g id="g652">
					</g>
					<g id="g656">
					</g>
					<g id="g660">
					</g>
					<g id="g664">
					</g>
					<g id="g668">
					</g>
					<g id="g672">
					</g>
					<g id="g676">
					</g>
					<g id="g680">
					</g>
					<g id="g684">
					</g>
					<g id="g688">
					</g>
					<g id="g692">
					</g>
					<g id="g696">
					</g>
					<g id="g700">
					</g>
					<g id="g704">
					</g>
					<g id="g708">
					</g>
					<g id="g712">
					</g>
					<g id="g716">
					</g>
					<g id="g720">
					</g>
					<g id="g724">
					</g>
					<g id="g728">
					</g>
					<g id="g732">
					</g>
				</g>
			</g>
		</g>
	</g>
</svg>