<svg version="1.2" xmlns="http://www.w3.org/2000/svg" viewBox="0 0 2328 710" width="2328" height="710">
	<style>
		.s0 { fill: #000000 } 
		.s1 { fill: #ffffff } 
		.s2 { fill: #0c0e0f } 
	</style>
	<g>
		<path fill-rule="evenodd" class="s0" d="m64.59 608.05h2233.09v-376.73h-2233.09z"/>
		<path fill-rule="evenodd" class="s1" d="m1874.45 556.97h-1809.86v-22.69h1817.8zm-1022.39-238.28l-62.41 167.94h-73.75l44.26-119.16-80.56 119.16h-65.81l9.08-121.41-44.27 121.41h-73.75l61.27-167.94h94.18c21.57 0 22.7 22.69 21.57 31.77 0 11.34-4.55 59.01-4.55 59.01l60.14-90.78zm287.09 164.53c-4.55 1.14-31.77 6.8-62.41 6.8-52.19 2.28-98.72-19.27-98.72-56.72-1.12-66.94 65.82-103.26 115.74-112.34 21.57-4.55 64.68-10.22 106.66 0l-24.95 59.01c-6.83-15.89-24.97-15.89-32.93-15.89-17-1.14-32.9 4.53-43.12 9.08-24.96 11.33-46.51 47.64-11.35 62.38 19.29 7.94 44.27 1.14 70.35-2.25zm755.72 3.41h-80.55l61.25-167.95h81.72zm-976.98 0h-80.56l61.27-167.94h81.7zm517.42-167.94l-62.4 167.94h-77.16l20.43-56.74h-40.87l-21.56 56.74h-77.16l62.41-167.94h77.18l-22.7 60.15h42l21.55-60.15zm374.46 112.34l-20.42 55.6h-158.86l61.29-167.94h79.4l-40.83 112.34zm416.43-112.34l-62.39 167.94h-114.61l4.53-119.15-43.09 119.15h-69.22l62.4-167.94h94.18c0 0 7.95 0 14.75 6.8 5.69 5.68 7.94 13.63 6.8 24.98-1.11 26.09-3.39 72.62-4.53 83.95l43.11-115.73zm-619.54 122.56l-15.88 45.38h-172.47l62.39-167.94h169.07l-15.88 44.25h-93.03l-6.83 18.15h88.53l-14.76 42h-88.52l-6.8 18.16z"/>
		<path fill-rule="evenodd" class="s2" d="m511.66 395.86c4.55-7.94-1.13-22.7-11.35-34.06-9.08-11.33-21.56-14.75-22.69-20.42 12.49-24.97-1.14-46.53-20.43-55.6 0.29-2.99 0.2-6.01-0.27-8.99-0.46-2.97-1.29-5.87-2.48-8.64-1.18-2.76-2.71-5.37-4.54-7.75-1.83-2.39-3.96-4.54-6.32-6.39 4.54-10.23 10.22-38.59-11.35-55.6 9.08-35.17-27.24-55.6-46.53-56.74-9.07-6.81-21.55-11.34-38.59-12.48 12.49-18.15 9.08-41.99-5.67-55.6 1.14-19.29-12.47-37.45-31.77-44.26-6.8-15.88-43.13-13.61-46.53 1.14-21.56 7.94-34.03 30.63-31.76 52.19-12.49 13.61-12.49 36.31 0 52.19-11.35-1.13-27.25 2.28-37.45 6.81h-1.14c-9.08-4.53-18.16-6.81-28.37-4.53-2.27-2.28-9.08-4.55-13.61-5.68q-1.29-2.2-2.89-4.18-1.6-1.99-3.48-3.72-1.87-1.73-3.98-3.17-2.11-1.43-4.41-2.54c-2.27-10.22-10.22-18.16-18.15-21.57 1.13-7.94-2.26-17.02-4.54-21.57-4.55-6.8-3.41-18.14-2.27-20.42 5.67-5.68 1.13-11.35-1.13-13.62-11.34-11.34-22.69-5.67-26.1 0-11.33-20.42-23.82-24.96-30.63-22.69-10.22-7.94-24.96-2.27-24.96 6.8-6.8 4.55-11.35 6.81-1.13 24.96-2.27 37.45 2.27 48.8 27.24 69.22-7.95 7.94-11.35 23.82-4.55 36.31-2.26 18.15 7.96 36.31 20.44 45.39 3.41 26.1 28.36 40.84 45.39 44.25 11.34 17.02 27.23 24.96 43.12 26.1 1.13 7.94 3.41 14.75 7.95 21.55-3.41 14.76-3.41 28.37 1.12 40.86-11.34 12.47-15.88 31.79-10.22 51.06-13.61 15.9-18.15 41.97-9.07 63.55 0 0-3.4 5.67-5.67 11.33-9.08 4.56-18.15 14.76-22.69 28.36-4.54 10.22-2.27 23.83 0 35.19-14.76 12.48-23.84 44.25 2.26 69.23-5.67 18.13-18.14 34.03-32.91 53.33-10.21 13.61-12.47 20.41 0 36.3 9.08 12.48 26.1 22.7 40.85 22.7 27.23 1.14 46.52-4.54 48.8-24.98 2.27-11.33-5.67-35.16-5.67-40.82-1.14-5.69 1.12-14.76 6.8-29.5 24.96-5.69 37.44-23.83 39.71-41.99 18.16-10.22 31.78-31.78 24.96-55.61 3.41-3.4 4.55-6.8 6.82-12.48 0 10.22 6.8 17.02 10.2 23.84-10.2 26.09 3.41 49.92 19.29 60.14-27.23 39.71 2.27 59 10.22 66.94 10.21 9.08 11.35 26.12 27.24 31.78 13.62 4.53 56.74 0 64.68-18.16 2.27-4.54 4.53-10.2 2.27-13.62 0-13.61-7.95-22.69-22.69-31.77-17.02-9.06-17.02-6.8-24.97-31.78 26.1-12.47 30.65-41.97 29.51-53.33 18.15-22.69 17.02-41.96 6.81-54.44 3.41-10.22 2.27-18.16 0-26.11 15.88-13.62 22.7-34.03 17.02-55.61 9.08-13.62 11.35-28.36 7.94-45.38 7.94 12.49 20.42 17.01 34.03 17.01 0 0 1.14 3.42 2.27 5.67-4.55 7.94-2.27 17.02 7.94 23.84 1.14 4.56 3.4 6.8 5.67 9.08 0 3.42 9.08 18.16 19.29 10.22 1.13 0 12.49-7.94 12.49-7.94 10.2 7.95 32.9 1.15 30.63-13.6z"/>
		<path fill-rule="evenodd" class="s1" d="m406.13 320.96c28.37-2.27 55.6-34.04 29.49-59.01-3.4 5.67-11.34 11.34-17.02 13.61-1.12 12.49-9.08 22.69-13.61 28.37 0 4.56 1.14 15.9 1.14 17.03z"/>
		<path fill-rule="evenodd" class="s1" d="m452.66 297.13c-6.82 18.16-24.98 28.36-46.53 31.77-3.41 14.76 15.89 37.46 45.39 23.84 21.55-9.08 29.51-43.13 1.14-55.61zm-7.94 80.57c-2.27 2.28-2.27 7.94 1.12 11.33 0-1.11 2.27-7.94 3.41-10.19-1.14-2.28-3.41-2.28-4.53-1.14zm32.9-19.29c-2.27-1.13-6.8-4.53-9.08-7.94-5.67 5.67-18.16 12.47-23.82 13.61 1.12 0 2.26 5.68 3.4 7.94 2.27 0 4.55 2.26 6.8 4.54 2.27-1.14 10.21 0 12.49 7.94 3.41 2.28 10.21 5.67 12.48 7.94 9.08 11.36 15.88 10.22 18.16 7.94 7.94-5.68-3.41-11.36-9.08-19.3-3.41-3.4-12.49-15.87-12.49-19.28 0-1.14 2.27 0 4.55 2.28 0 1.14 12.47 15.9 19.28 21.56-5.67-19.28-22.69-27.23-22.69-27.23zm-6.81 35.18c-7.94 2.28-13.62 7.94-10.22 12.47 1.12 2.28 2.26 2.28 6.81-1.14 2.27-1.11 6.8-4.53 7.94-5.67-1.13-3.39-4.53-5.66-4.53-5.66zm-7.94-2.28c-1.14-3.39 0-7.94-5.68-9.08-5.67-2.25-5.67 15.89-2.27 14.75 2.27-2.25 4.54-4.53 7.95-5.67zm-164.54-59c107.8-1.14 121.41-64.69 106.66-89.64-32.9 34.04-142.98 53.33-197.44 10.21-10.2 11.35-23.83 14.75-35.18 17.02 3.41 31.76 61.29 63.55 125.96 62.41z"/>
		<path fill-rule="evenodd" class="s1" d="m394.78 177.99c41.98 57.87-32.9 91.91-103.26 90.78-46.53-1.14-66.94-15.89-77.17-23.83 4.55-6.82 13.62-26.1 11.35-47.66 61.28 24.96 150.93 4.54 169.08-19.29zm-332.46-13.61c27.23 19.29 69.21-3.42 72.62-32.91 3.39 2.26 5.67 5.67 7.94 7.94 7.94 14.75 6.81 35.17-10.21 51.06-18.16 17.02-60.14 15.88-70.35-26.09z"/>
		<path fill-rule="evenodd" class="s1" d="m166.71 218.84c24.96-28.37 0-71.49-11.34-73.76 7.94 41.98-34.05 74.88-71.49 59 9.06 26.1 53.32 47.66 82.83 14.76z"/>
		<path fill-rule="evenodd" class="s1" d="m132.67 244.94c21.56 22.69 79.43 21.57 82.84-31.78 2.26-36.31-13.62-56.73-38.59-63.53 29.51 55.59-5.67 94.17-44.25 95.31zm45.39 56.72c-10.22 61.28 71.49 80.56 120.27 79.42 82.84-3.4 101-43.11 96.45-66.93-52.2 40.85-163.39 36.32-216.72-12.49z"/>
		<path fill-rule="evenodd" class="s1" d="m220.03 431.03c44.26 9.08 79.43-11.36 79.43-40.86-21.57 0-90.78-1.14-123.68-46.51-22.69 31.76 4.55 76.01 44.25 87.37z"/>
		<path fill-rule="evenodd" class="s1" d="m280.17 432.17c-39.71 20.41-94.18 5.67-114.61-36.31-29.5 46.5 19.29 88.49 55.6 86.22 44.26-2.25 56.74-30.64 59.01-49.91z"/>
		<path fill-rule="evenodd" class="s1" d="m241.61 487.76c2.27 18.16-23.84 43.14-62.41 28.38-18.16-6.81-35.18-34.05-21.57-59 21.56 28.35 53.33 37.44 83.98 30.62zm-35.2 82.84c-2.26 13.61-19.28 39.7-57.86 26.09-27.24-9.08-39.71-48.77-21.57-63.55 24.98 48.81 69.23 39.71 79.43 37.46z"/>
		<path fill-rule="evenodd" class="s1" d="m234.8 519.52c4.53 13.6-14.76 60.13-69.23 40.86-27.24-9.08-52.19-55.61-22.69-85.11 1.13 21.56 13.61 37.45 34.04 47.67 10.21 5.66 36.31 11.34 57.88-3.42zm137.29 138.45l2.26 1.14c-4.54 9.08-37.44 17.02-51.06 11.33-15.89-7.91-12.48-16.99-22.69-26.09-22.7-21.55-19.29-30.63-15.88-41.99 1.12-5.67 3.4-9.08 7.94-14.75 15.88 5.67 22.69 4.56 36.31 1.14 0 1.14 0 4.53 1.14 5.67-10.22 1.14-19.3 3.42-19.3 3.42l3.4 7.94c0 0 7.94-2.28 18.15-3.42 0 0 1.14 5.69 2.27 7.94-9.08 0-17.02 3.42-17.02 3.42l2.26 6.8c0 0 12.48-3.39 21.56-2.28 9.08 7.94 45.39 17.02 27.24 36.34-6.8 6.8-23.84 9.05-37.45 9.05v2.28c2.29 3.42 27.25 4.53 40.87-7.94zm-61.28-74.9c-23.83-1.12-45.39-17.02-38.58-51.05 11.35 12.48 24.97 20.42 44.26 20.42q5.14 0.35 10.25-0.21 5.12-0.56 10.06-2.01 4.94-1.46 9.54-3.76 4.6-2.3 8.73-5.38c0 4.56-1.14 44.27-44.26 41.99z"/>
		<path fill-rule="evenodd" class="s1" d="m315.35 544.5c46.53 1.14 60.14-37.45 51.06-54.47-26.1 31.77-86.24 24.97-98.73-14.76-15.86 28.37 10.22 69.23 47.67 69.23z"/>
		<path fill-rule="evenodd" class="s1" d="m322.17 502.5c22.69 0 47.65-15.87 41.98-44.25-26.1 17.02-59.02 15.9-81.7-1.11-2.27 3.39-5.67 9.05-7.94 11.33 3.39 21.56 24.96 34.03 47.66 34.03z"/>
		<path fill-rule="evenodd" class="s1" d="m293.78 423.09c-1.12 1.14-2.26 2.28-3.4 2.28 0 7.94-2.27 18.13-4.54 24.94 31.78 27.26 98.72 10.22 94.19-45.39-22.7 22.7-59 28.39-86.25 18.17z"/>
		<path fill-rule="evenodd" class="s1" d="m308.54 390.17c0 10.22-3.41 19.3-9.07 27.25 40.84 12.48 91.92-9.08 89.64-57.88-13.62 12.5-38.59 28.38-80.57 30.63zm-205.38-230.34c30.64-13.61 28.36-45.38 10.21-53.32-4.55 4.53-3.41 14.75-3.41 17 0 4.55-7.94 7.94-9.08 5.68-2.26-3.41 4.55-6.8 1.14-14.76-2.26-6.8 5.68-10.2 5.68-21.56 0-6.81-5.68-17.01-5.68-19.29-3.4-6.82-3.4-19.29 1.14-24.96-3.4-3.41-7.95-6.82-11.34 0-5.68 7.94-3.41 18.14 0 26.1 0 1.14-5.68 0-7.94 9.08l-2.27 3.4h-2.27c-1.14-6.8 1.13-10.2 3.41-14.74-1.14-1.14-3.41-6.81-3.41-17.02-4.54-13.61-14.75-26.1-21.57-27.22 5.68 9.08 15.9 28.36 17.03 30.63 2.26 5.67-2.27 6.8-2.27 6.8-7.94-15.89-15.9-30.63-22.71-37.45-4.53-3.4-9.07-5.67-11.33-2.26 2.26 0 4.53 2.26 6.8 4.54 6.81 9.07 21.56 38.58 21.56 38.58 0 0-1.12 1.12-3.4 1.12-2.27 0-4.55-4.53-7.94-12.47-4.55-6.8-11.35-18.16-14.76-21.57-3.4-4.53-5.67-3.4-7.94-1.12 2.27 3.4 4.55 7.94 4.55 11.34 5.67-2.26 12.47 3.41 13.61 9.08 0 4.55 2.27 19.29 5.68 23.84-1.14 0-4.55 2.26-4.55 2.26-3.41-3.4-5.67-19.28-6.81-24.96 0-2.26-1.13-4.54-4.54-5.67-2.26 0-2.26 1.13-2.26 2.27-2.27 31.76 0 39.7 28.36 61.27 2.27 1.12 4.55 5.67 6.82 10.22 2.27 3.4 5.67 9.08 12.47 7.94l2.27 2.26c-5.67 5.68-14.75 2.28-17.02 0-1.13-2.26-5.67-9.08-5.67-9.08-20.43 20.42 6.81 48.79 37.44 34.04zm31.78 439.14c-11.35 24.97-22.7 36.3-35.17 54.47-9.08 11.33-5.67 16.99 0 24.94 11.35 12.5 30.63 19.3 45.39 14.76v-1.12c-18.16 1.12-32.92-5.68-40.84-17.02l1.12-1.14c20.43 15.9 47.66 11.34 57.88 5.68 3.41-1.14 4.53-4.54 4.53-7.94-1.12-9.06-5.67-23.84-6.8-31.78-1.14-5.67 1.13-18.13 6.8-31.75-9.09 1.12-27.24-1.16-32.91-9.1zm264.39-431.2c14.75 10.21 17.01 30.64 17.01 38.58 14.75-28.37-6.8-45.39-18.15-48.8 2.27 4.55 2.27 9.1 1.14 10.22zm21.55 93.05c28.37-15.9 10.21-49.92 5.68-52.19-1.13 3.41-4.54 12.47-14.76 23.82 5.68 6.81 9.08 17.02 9.08 28.37zm-197.43-73.76c20.43 9.08 41.98 12.48 63.53 12.48 59.01 0 99.86-17.01 103.27-34.05 2.27-14.75-24.96-23.82-53.33-26.1-4.55 4.55-10.22 6.8-12.49 6.8-1.12 0-3.4-1.12-1.12-2.26 4.54-2.27 9.08-6.8 4.54-14.76 3.41 0 13.62-4.53 14.76-22.68 0-14.75-6.82-23.83-13.62-28.37 0 0-2.26-2.26 0-2.26 2.27-18.16-10.21-32.92-31.77-37.45v-2.27c1.12 0 1.12-1.12 1.12-1.12-1.12-4.54-17.02-6.8-23.82-1.13-1.12 1.13 3.41 3.41 4.54 3.41 2.26 0 3.4 2.26 1.14 2.26-13.62-1.12-36.31 10.22-36.31 40.86 1.13 0 7.94-1.13 10.22-1.13 2.27 1.13 1.13 3.41 0 3.41-21.57 1.12-29.51 38.58-1.14 51.06 0 0 2.27 1.13 0 2.27-3.41 2.26-5.67 6.8-1.13 10.2 2.27 0 3.41 2.27 2.27 3.41 0 2.27-3.41 2.27-5.67 0-14.76-6.81-31.78-3.41-45.39 1.13 10.18 7.92 16.98 21.54 20.4 36.29z"/>
		<path fill-rule="evenodd" class="s2" d="m73.67 84.94c-2.27 0-4.55-1.13-6.82-1.13-3.39 0-6.8 1.13-6.8 1.13 0 1.14 4.54 1.14 7.94 2.26 3.4 2.28 6.81 5.68 7.95 4.55 1.12-1.14-1.14-4.55-2.27-6.81zm79.42 548.05c-7.94-2.25-18.17-3.39-24.97-4.53v7.94c5.68 0 15.89 1.14 22.7 3.4zm4.55-15.86c-10.21-3.42-13.63-3.42-26.11-3.42v6.8c11.35 1.14 13.62 1.14 23.84 4.53zm158.86-509.5c-1.13 0-2.27 0-3.41 1.12-20.43-3.4-26.1 1.14-37.45 1.14 0-1.14 0-3.4-2.26-3.4 0 1.12-1.14 2.26-1.14 2.26-3.41 4.55-4.55 6.8-3.41 7.94 1.13 1.14 3.41-1.14 4.55-2.26 1.12 0 5.67 0 10.2 2.26 3.41 2.27 10.21 11.35 17.02 7.94 5.68-2.26 10.21-11.34 13.62-11.34 2.27 0 4.55 1.12 4.55 0 1.12 0.01-1.14-6.79-2.27-5.66zm-15.9 13.62c-6.81 2.27-10.22-5.67-15.88-7.94 5.68-1.14 15.88-2.26 24.97-1.14-2.27 1.13-7.95 7.94-9.09 9.08zm7.95-65.81c-6.81 1.14-11.34 10.22-11.34 21.57 1.13 6.8 3.41 13.61 7.94 17.02 2.27 1.14 4.55 2.26 6.81 2.26 6.82-1.12 12.48-10.22 11.35-21.56 0-6.8-3.4-13.62-6.8-15.89q-0.75-0.83-1.67-1.48-0.91-0.65-1.94-1.09-1.03-0.44-2.13-0.65-1.1-0.21-2.22-0.18z"/>
		<path fill-rule="evenodd" class="s1" d="m317.62 87.2c1.14-2.26 2.27-6.8 2.27-12.47-1.13-5.67-2.27-10.21-5.68-13.61-1.12-1.14-3.4-1.14-4.54-1.14-5.68 0-9.08 7.94-7.94 17.02v2.26c1.14-5.67 3.4-10.22 7.94-11.34 4.54 0 7.94 5.67 7.94 12.47z"/>
		<path fill-rule="evenodd" class="s2" d="m276.78 56.58c-6.82 1.13-12.49 10.21-12.49 21.56q0 10.21 6.81 17.02c2.27 1.12 4.54 2.26 7.94 2.26 6.82 0 12.49-10.22 12.49-21.55 0-6.81-2.27-12.49-6.8-15.89q-0.75-0.83-1.66-1.48-0.92-0.65-1.95-1.09-1.02-0.44-2.12-0.65-1.1-0.21-2.22-0.18z"/>
		<path fill-rule="evenodd" class="s1" d="m285.84 86.08c1.13-3.41 2.27-6.8 2.27-10.21-1.14-5.67-2.27-10.22-5.67-13.61-1.14-1.13-3.41-2.27-5.68-1.13-4.54 0-9.08 7.94-9.08 17.01 0 3.4 1.14 6.8 3.41 9.08v1.14-1.14c-1.14-1.13-1.14-2.27-1.14-4.54 0-6.8 3.41-12.48 7.94-12.48 4.55 0 7.94 5.67 7.94 12.48z"/>
	</g>
</svg>