<svg version="1.2" xmlns="http://www.w3.org/2000/svg" viewBox="0 0 2500 647" width="2500" height="647">
	<style>
		.s0 { fill: #157563 } 
		.s1 { fill: #2d509f } 
	</style>
	<g>
		<path fill-rule="evenodd" class="s0" d="m1872.14 558.38v-0.02l0.01 0.01v-224.18h251.79v60.99h-119.34v21.69h108.38v57.43h-108.38v23.81h122.45v60.77h-254.21zm58.13-456.71h239.43v166.29h-59.32v-113.16h-180.11c-26.2 0-47.67 13.58-47.67 30.01 0 16.44 21.45 30.02 47.67 30.02h160.09l-40.02 53.13h-120.08c-21.66-0.01-41.67-5.72-58.12-15.26-25.73-15.24-42.66-40.02-42.66-67.9 0-28.11 16.93-52.89 42.66-67.89 16.45-9.76 36.45-15.24 58.13-15.24zm217.76 438.12l43.11-62.89c19.53 8.09 36.68 13.81 51.94 17.63q22.88 5.72 42.89 5.71c9.29 0 16.45-1.19 21.91-3.34 5.23-1.89 7.86-4.75 7.86-8.33q0.01-9.67-40.03-14.3-2.49-0.37-4.99-0.72-2.5-0.36-5-0.68-2.5-0.33-5.01-0.64-2.5-0.31-5.01-0.59c-28.11-4.3-49.79-11.44-64.79-21.9-15.03-10.51-22.4-23.36-22.4-39.1 0-24.05 14.52-43.59 43.59-58.84q43.59-22.87 114.35-22.88c21.68 0 42.89 1.67 63.83 5.23 20.98 3.34 42.18 8.36 63.63 15.26l-41.46 58.85q-4.74-2.1-9.58-3.97-4.84-1.87-9.76-3.51-4.92-1.64-9.91-3.05-4.99-1.41-10.04-2.58-4.71-1.12-9.48-1.97-4.77-0.85-9.58-1.42-4.81-0.56-9.64-0.85-4.84-0.29-9.68-0.29c-9.29 0-16.67 0.96-21.9 2.86-5.02 1.89-7.62 4.53-7.62 7.86 0 6.43 18.82 11.92 56.46 16.67 5.95 0.96 10.7 1.44 14.04 1.92 25.99 3.56 46.22 10.7 61.23 21.42 15.03 10.73 22.4 23.58 22.4 38.84 0 25.03-15 45.26-45.26 61-30 15.96-69.32 23.8-117.69 23.8q-37.15 0.02-74.33-6.42-9.43-1.61-18.78-3.59-9.36-1.98-18.63-4.33-9.27-2.36-18.44-5.07-9.17-2.72-18.23-5.79zm255.62-359.51c0-15.49-12.39-25.49-29.07-25.49h-122.7v113.16h-58.11v-166.3h192.02c25.25 0 74.33 11.21 74.33 63.14v103.16h-56.47zm-718.3 255.17c8.57-0.74 15.26-2.41 20.23-5.02 6.91-3.82 10.51-9.28 10.51-16.19 0-7.16-3.59-12.65-10.51-16.45-4.98-2.86-11.66-4.78-20.23-5.49v0.01c-2.86-0.23-5.95-0.23-9.53-0.23h-20.95v43.82h20.95c3.58 0 6.68-0.23 9.53-0.45v83.84l-30.49-34.53v74.11h-133.18v-224.69h163.67v-0.02h7.16c49.32 0 87.18 6.45 113.4 19.56 26.2 12.85 39.31 31.67 39.31 55.99 0 16.19-6.68 29.3-19.78 39.54-13.33 10.48-30.97 16.46-53.36 18.09l99.59 90.59v0.94h-150.82l-35.49-39.58v-83.84zm186.79-101.27v224.17l-0.47-0.42v-223.75zm-126.98-66.23h-81.97l-90.77-93.15 95.55-73.14h81.95l-64.56 49.32v-0.02l-30.98 23.83 30.98 31.93zm11.19-166.3h59.32v166.3h-59.32zm-442.64 276.14c2.86 3.79 6.17 9.28 10.24 16.9q0.07 0.22 0.15 0.43 0.08 0.21 0.17 0.42 0.09 0.21 0.19 0.42 0.09 0.2 0.2 0.4c1.89-3.56 5.24-8.81 9.77-15.96 0.96-1.19 1.44-1.89 1.89-2.6l31.22-43.62h153.67l-131.05 125.34v99.35h-81.47v-187.77zm81.23-162.98c26.21 0 47.41-13.57 47.41-30.01 0-16.44-21.2-30.01-47.41-30.01h-172.01c-26.2 0-47.64 13.57-47.64 30.01 0 16.44 21.44 30.01 47.64 30.01h85.77v53.14h-85.77c-55.5 0-100.77-37.41-100.77-83.15 0-45.74 45.27-83.15 100.77-83.15h172.01c55.29 0 100.77 37.41 100.77 83.15 0 45.74-45.5 83.15-100.77 83.15h-86.23v-53.14zm117-141.98h59.3v195.12h-59.3zm-203.24 298.27v187.75h-55.27v-99.35l-126.27-125.34h154.62zm-392.85 187.75v-151.3h-75.53v-73.39h286.59v73.39h-75.51v151.3zm133.87-290.91v-87.67c0-15.49-12.38-25.49-29.07-25.49h-122.69v113.16h-58.12v-166.29h192.02c25.26 0 74.34 11.2 74.34 63.13v103.16z"/>
		<path fill-rule="evenodd" class="s1" d="m523.43 210.07c-50.26 34.54-110.3 54.79-174.62 54.79-64.33 0-124.12-20.25-174.39-54.79 2.38-3.82 5.01-7.63 7.63-11.44 48.12 33.11 105.31 52.18 166.77 52.18h-0.01c14.79 0 29.57-1.11 44.2-3.34 14.62-2.23 29.06-5.57 43.18-9.99 14.12-4.42 27.88-9.9 41.17-16.4 13.29-6.51 26.07-14.01 38.22-22.45zm-124.7 220.01c16.57-1.82 33.03-4.55 49.3-8.18 16.28-3.62 32.34-8.13 48.12-13.5 15.79-5.38 31.26-11.61 46.36-18.68q-3.02 8.4-6.78 16.49-3.76 8.09-8.23 15.82-4.46 7.73-9.6 15.03-5.13 7.3-10.89 14.11-19.08 6.46-38.62 11.34-19.54 4.88-39.41 8.14-19.87 3.27-39.95 4.9-20.07 1.62-40.21 1.61v-44.33c16.67-0.01 33.33-0.92 49.91-2.75zm-49.91-44.91c17.96 0.01 35.9-1.15 53.71-3.48 17.81-2.33 35.45-5.81 52.8-10.43 17.36-4.62 34.39-10.36 51-17.2 16.61-6.83 32.75-14.74 48.33-23.68q-0.28 5.62-0.89 11.22-0.6 5.59-1.53 11.14-0.92 5.55-2.16 11.04-1.25 5.49-2.8 10.9c-15.36 7.62-31.14 14.34-47.27 20.14-16.13 5.8-32.58 10.67-49.27 14.58-16.69 3.91-33.59 6.85-50.62 8.82-17.03 1.96-34.16 2.94-51.3 2.94-17.14 0-34.27-0.99-51.29-2.96-17.03-1.97-33.93-4.91-50.62-8.82-16.69-3.91-33.14-8.77-49.27-14.57-16.13-5.8-31.92-12.52-47.28-20.13q-1.51-5.42-2.73-10.91-1.22-5.49-2.15-11.04-0.92-5.55-1.55-11.14-0.62-5.59-0.95-11.21c61.46 35.03 131.5 54.81 205.84 54.81zm0-14.77v-0.01c-74.8 0-145.09-20.74-205.84-56.7 0.25-10.96 1.44-21.67 3.34-32.16 15 9.64 30.67 18.2 46.9 25.61 16.22 7.41 32.96 13.64 50.07 18.66 17.12 5.01 34.57 8.79 52.23 11.31 17.65 2.52 35.47 3.77 53.3 3.74 74.09 0 143.42-21.44 202.5-59.32q0.81 3.97 1.44 7.97 0.63 4 1.08 8.03 0.45 4.02 0.71 8.07 0.27 4.04 0.35 8.09c-61 35.97-131.27 56.71-206.08 56.71zm50.02-78.08c16.56-2.5 32.9-6.25 48.89-11.21 15.99-4.96 31.59-11.12 46.65-18.43 15.07-7.3 29.57-15.73 43.37-25.21q4.64 10.01 7.86 20.73c-56.94 37.87-124.61 59.79-196.79 59.79-72.19 0-139.61-21.92-196.79-59.79q3.58-10.72 7.85-20.73c54.56 37.15 119.37 58.6 188.94 58.6 16.75 0.01 33.47-1.24 50.02-3.75zm-99.92 137.76c-16.58-1.83-33.04-4.56-49.31-8.18-16.28-3.62-32.34-8.13-48.12-13.51-15.78-5.37-31.26-11.61-46.36-18.68q3.1 8.37 6.89 16.44 3.79 8.07 8.25 15.79 4.47 7.73 9.57 15.05 5.1 7.31 10.79 14.17 19.08 6.46 38.62 11.34 19.54 4.87 39.41 8.14 19.88 3.26 39.95 4.89 20.07 1.63 40.21 1.62v-44.33c-16.67 0-33.33-0.92-49.9-2.74z"/>
		<path fill-rule="evenodd" class="s0" d="m609.74 172.42q-4.35 5.16-8.88 10.17-4.53 5-9.24 9.85-4.69 4.83-9.55 9.49v-43.56h-0.01q-0.01 0.01-0.01 0.01v-0.02q2.44-2.79 4.82-5.63 2.39-2.84 4.71-5.73 2.33-2.89 4.59-5.83 2.26-2.94 4.46-5.92 2.37 3.23 4.66 6.51 2.28 3.28 4.49 6.62 2.2 3.34 4.32 6.73 2.13 3.39 4.16 6.84-4.16 5.31-8.52 10.47zm-27.67 29.51v0.03q-5.17 4.87-10.53 9.54-5.36 4.66-10.91 9.1-5.54 4.45-11.27 8.66-5.72 4.22-11.6 8.2c-4.06-9.52-8.82-18.57-14.3-27.39q8.05-5.58 15.76-11.62 7.71-6.04 15.05-12.52 7.34-6.48 14.3-13.37 6.94-6.89 13.48-14.18v43.58q0.01-0.01 0.02-0.03zm-0.01 324.76v-0.02c-57.42 64.34-140.56 104.85-233.24 104.85-85.53 0-163.44-34.79-219.9-91.03q-4.19-4.16-8.23-8.49-4.04-4.32-7.92-8.79-3.87-4.47-7.58-9.08-3.7-4.61-7.24-9.36v-95.53c10.24 5.72 20.48 11.19 30.97 16.45q7.5 3.68 15.11 7.12 7.62 3.43 15.34 6.62 7.72 3.19 15.54 6.12 7.81 2.94 15.72 5.62c37.88 45.26 94.82 74.32 158.19 74.32 63.37 0 120.31-29.06 158.19-74.32q9.69-3.24 19.24-6.88 9.55-3.63 18.94-7.66 9.4-4.03 18.62-8.43 9.22-4.41 18.25-9.19v0.01q9.86-5.21 19.48-10.85 9.62-5.63 18.99-11.69 9.36-6.05 18.45-12.51 9.09-6.46 17.89-13.32c-2.43 14.42-5.86 28.64-10.27 42.58-4.42 13.93-9.8 27.54-16.12 40.72-6.32 13.18-13.56 25.9-21.66 38.07-8.1 12.17-17.04 23.75-26.76 34.67zm20.67-184.33q10.17-6.91 19.96-14.34 9.79-7.43 19.17-15.36 9.39-7.94 18.35-16.35c0.48 5 0.71 9.77 0.71 14.77q-9.13 8.16-18.65 15.88-9.51 7.71-19.39 14.96-9.87 7.25-20.08 14.02-10.21 6.76-20.74 13.03-4.84 2.78-9.73 5.47-4.9 2.69-9.84 5.29-4.95 2.59-9.94 5.09-4.99 2.5-10.04 4.9c1.91-5.02 3.33-10.02 4.77-15.03q4.44-2.2 8.84-4.5 4.39-2.29 8.74-4.68 4.35-2.38 8.65-4.85 4.3-2.47 8.55-5.02 10.51-6.37 20.67-13.28zm-20.67-46.3q9.21-6.56 18.08-13.58 8.87-7.02 17.38-14.48 8.5-7.46 16.62-15.34 8.11-7.88 15.82-16.15c1.43 5.49 2.85 10.97 4.04 16.68q-8.16 8.49-16.76 16.53-8.6 8.05-17.61 15.63-9.01 7.58-18.41 14.67-9.4 7.1-19.16 13.69c-9.05 5.71-18.11 11.41-27.4 16.68 0.25-3.56 0.25-7.38 0.25-10.97v-5.71q3.48-2.07 6.91-4.21 3.44-2.14 6.84-4.34 3.39-2.21 6.74-4.48 3.35-2.27 6.66-4.6zm12.53-76.63q6.15-5.8 12.05-11.85 5.91-6.05 11.56-12.34 5.65-6.29 11.04-12.81c3.57 7.38 7.15 15.01 10.24 22.63q-6.48 7.54-13.32 14.74-6.85 7.21-14.04 14.07-7.19 6.87-14.71 13.36-7.52 6.5-15.35 12.62-3.69 2.92-7.46 5.74-3.76 2.82-7.61 5.53-3.84 2.71-7.76 5.32-3.92 2.6-7.91 5.1-0.53-2.96-1.16-5.9-0.62-2.94-1.33-5.86-0.72-2.92-1.52-5.82-0.81-2.89-1.7-5.76 4.74-3.17 9.39-6.47 4.66-3.3 9.22-6.73 4.56-3.43 9.02-6.98 4.46-3.56 8.82-7.23 6.38-5.55 12.53-11.36zm-2.52-95.38c-3.34 4.53-6.68 8.82-10.01 13.11q-7.14 8.84-14.89 17.14-7.76 8.3-16.1 16.01-8.35 7.71-17.22 14.8-8.88 7.09-18.25 13.51c-37.41-51.46-98.4-85.28-166.78-85.28-68.38 0-129.13 33.83-166.77 85.28q-7.26-5.01-14.23-10.42-6.97-5.41-13.63-11.2-6.66-5.79-12.98-11.95-6.33-6.15-12.3-12.65v-0.01q0.01 0.01 0.01 0.01v-54.08q0 0.01-0.01 0.02v-0.02c56.45-56.23 134.37-91.01 219.9-91.01 92.68 0 175.83 40.51 233.25 104.84 3.34 3.8 6.67 7.86 10.01 11.9zm-463.15 239.18q10.73 6.07 21.44 11.44c1.43 5.01 3.1 10.01 4.77 15.03-8.82-4.29-17.63-8.56-26.21-13.36v0.02c-10.49-5.72-20.73-11.92-30.97-18.35v-13.58q3.78 2.5 7.61 4.93 3.82 2.42 7.7 4.78 3.87 2.35 7.79 4.63 3.91 2.28 7.87 4.48zm14.06-49.54c-0.25 1.91-0.25 3.8-0.25 5.72 0 3.57 0.25 7.39 0.25 10.97-4.77-2.65-9.3-5.5-14.06-8.36q-4-2.42-7.93-4.94-3.94-2.52-7.82-5.14-3.87-2.63-7.68-5.34-3.8-2.72-7.54-5.54-7.25-5.4-14.26-11.1-7.02-5.71-13.79-11.7-6.77-5.99-13.28-12.27-6.51-6.27-12.75-12.81c1.19-5.72 2.39-11.2 4.04-16.69 15.5 16.69 32.17 32.41 50.04 46.22q3.74 2.95 7.55 5.82 3.8 2.86 7.67 5.63 3.88 2.77 7.82 5.45 3.93 2.68 7.93 5.26c4.54 3.1 9.29 5.95 14.06 8.82zm9.05-55.5q-0.89 2.87-1.69 5.76-0.81 2.9-1.52 5.82-0.72 2.92-1.34 5.86-0.63 2.94-1.16 5.9-2.21-1.41-4.4-2.84-2.2-1.43-4.37-2.89-2.17-1.46-4.33-2.95-2.16-1.49-4.3-3-4-2.89-7.95-5.87-3.94-2.98-7.81-6.05-3.87-3.07-7.68-6.22-3.8-3.16-7.53-6.4v0.02q-5.27-4.7-10.38-9.57-5.12-4.87-10.06-9.91-4.95-5.04-9.73-10.24-4.77-5.2-9.37-10.56 1.15-2.86 2.36-5.71 1.2-2.85 2.45-5.68 1.25-2.83 2.55-5.64 1.3-2.81 2.64-5.6 3.5 4.19 7.1 8.3 3.61 4.1 7.3 8.12 3.7 4.03 7.48 7.96 3.79 3.94 7.66 7.79v-0.02q3.72 3.54 7.52 6.99 3.8 3.45 7.67 6.82 3.88 3.37 7.82 6.65 3.95 3.28 7.96 6.47c7.62 5.72 15.25 11.44 23.11 16.69zm-12.38-75.79q5.47 4.99 11.17 9.74 5.7 4.74 11.6 9.22 5.91 4.48 12.01 8.69c-5.48 8.81-10.48 17.88-14.53 27.4q-4.01-2.77-7.95-5.63-3.94-2.86-7.81-5.81-3.88-2.95-7.68-5.98-3.8-3.04-7.54-6.17-4.11-3.49-8.1-7.12-3.99-3.63-7.87-7.38-3.87-3.76-7.62-7.63-3.75-3.88-7.38-7.88-2.44-2.64-4.82-5.33-2.38-2.69-4.7-5.42-2.33-2.74-4.59-5.53-2.27-2.79-4.47-5.63c5.47-9.05 11.42-18.1 17.62-26.69 0.48 0.48 0.72 0.94 0.96 1.42q3.56 4.7 7.28 9.27 3.72 4.57 7.6 9.01 3.87 4.44 7.9 8.75 4.02 4.3 8.19 8.46 5.25 5.24 10.73 10.24zm-10.74-84.07v54.05q-3.1-3.35-6.09-6.79-3-3.46-5.89-7-2.89-3.55-5.67-7.18-2.78-3.64-5.44-7.35 2.69-3.39 5.49-6.69 2.79-3.31 5.68-6.52 2.89-3.22 5.87-6.36 2.98-3.12 6.05-6.16zm-30.96 246.09v13.59q-8.05-5.33-15.91-10.93-7.86-5.6-15.52-11.47-7.66-5.87-15.11-12.01-7.45-6.13-14.69-12.52l0.72-14.77c18.82 17.86 39.08 33.59 60.51 48.11zm-14.69 55.84q-7.27-4.6-14.39-9.43-7.13-4.83-14.09-9.88-6.97-5.06-13.77-10.33c1.98 12.11 4.68 24.08 8.09 35.86 3.41 11.78 7.52 23.35 12.32 34.63 4.79 11.29 10.25 22.28 16.36 32.92 6.1 10.63 12.84 20.9 20.17 30.73v-95.54q-7.41-4.36-14.69-8.96z"/>
	</g>
</svg>