<svg version="1.2" xmlns="http://www.w3.org/2000/svg" viewBox="0 0 2279 651" width="2279" height="651">
	<style>
		.s0 { fill: #fff22d } 
		.s1 { fill: #cc2229 } 
	</style>
	<g>
		<path fill-rule="evenodd" class="s0" d="m1.16 4.19h2276.52v646.46h-2276.52z"/>
		<path fill-rule="evenodd" class="s1" d="m2007.28 131.71c50.75 0 73.24 47.28 73.05 72.03 0 22.71-16.14 74.08-73.45 73.87l-1588.92-0.42 0.6 245.96h-192.55v-391.46h1781.27zm-1588.51 47.28l-0.21 47.47h1364.23c12.7 0 25.58-13.09 25.58-24.97 0-11.65-12.67-22.3-25.35-22.3zm511.57 137.69c40.11 0 68.13 27.44 68.13 74.48 0 26.2-24.95 53-43.17 58.94l51.57 73.05h-136.49l-33.97-62.81h-31.72l-0.21 62.81h-116.02l-0.4-206.47zm-68.36 47.28h-57.5v45.64h57.5c12.28 0 22.93-8.62 22.93-22.94 0-11.65-10.65-22.71-22.93-22.71zm456.12-47.28l-0.4 47.49-133.41-0.22v32.54l129.11 0.2v47.48h-129.11v32.32h142.01l-0.21 46.67h-262.75v-206.48zm191.75 0v159.79h115.2l-0.21 46.67h-233.27v-206.46zm267.65 0v159.79h114.8v46.67h-233.08v-206.46zm-1166.37 0v206.46h-115.21v-206.46zm1317.78 0h115.23v206.46h-115.23z"/>
	</g>
</svg>